<svg width="10" height="13" viewBox="0 0 10 13" fill="none" xmlns="http://www.w3.org/2000/svg">
<path d="M5 0.75C5.9665 0.75 6.75 1.5335 6.75 2.5C6.75 3.4665 5.9665 4.25 5 4.25C4.0335 4.25 3.25 3.4665 3.25 2.5C3.25 1.5335 4.0335 0.75 5 0.75Z" fill="#0B192C" stroke="#0B192C" stroke-width="1.5"/>
<path d="M5 7.625C6.27631 7.625 7.39491 7.91769 8.16797 8.35254C8.96443 8.80059 9.25 9.30216 9.25 9.6875C9.25 10.5293 9.20964 10.8437 8.90137 11.0947C8.71836 11.2437 8.38031 11.4147 7.74219 11.5439C7.10711 11.6725 6.22423 11.75 5 11.75C3.77577 11.75 2.89289 11.6725 2.25781 11.5439C1.61969 11.4147 1.28164 11.2437 1.09863 11.0947C0.79036 10.8437 0.75 10.5293 0.75 9.6875C0.75 9.30216 1.03557 8.80059 1.83203 8.35254C2.60509 7.91769 3.7237 7.625 5 7.625Z" fill="#0B192C" stroke="#0B192C" stroke-width="1.5"/>
</svg>
