<svg width="18" height="18" viewBox="0 0 18 18" fill="none" xmlns="http://www.w3.org/2000/svg">
<path d="M1 8.11122C1 6.43511 1 5.59706 1.5207 5.07637C2.0414 4.55566 2.87945 4.55566 4.55556 4.55566H5.44444H12.5556H13.4444C15.1205 4.55566 15.9586 4.55566 16.4793 5.07637C17 5.59706 17 6.43511 17 8.11122V13.4446C17 15.1206 17 15.9587 16.4793 16.4794C15.9586 17.0001 15.1205 17.0001 13.4444 17.0001H12.5556H5.44444H4.55556C2.87945 17.0001 2.0414 17.0001 1.5207 16.4794C1 15.9587 1 15.1206 1 13.4446V8.11122Z" stroke="#0B192C" stroke-width="1.5" stroke-linejoin="round"/>
<path d="M5.44531 17V2.77778C5.44531 1.79594 6.24125 1 7.22309 1H10.7786C11.7605 1 12.5564 1.79594 12.5564 2.77778V17" stroke="#0B192C" stroke-width="1.5" stroke-linejoin="round"/>
</svg>
