<svg width="20" height="20" viewBox="0 0 20 20" fill="none" xmlns="http://www.w3.org/2000/svg">
<path fill-rule="evenodd" clip-rule="evenodd" d="M10 0L20 5.35635V14.6437L10 20L0 14.6437V5.35635L10 0ZM8.2024 5.05572C5.37168 5.05572 3.07692 7.16283 3.07692 9.76209V10.238C3.07692 12.8372 5.37168 14.9444 8.2024 14.9444C8.99811 14.9444 9.78288 14.7743 10.4946 14.4475L11.1132 14.1634L10.4252 12.8999L9.80655 13.184C9.30849 13.4127 8.75926 13.5317 8.2024 13.5317C6.22134 13.5317 4.61538 12.0571 4.61538 10.238V9.76209C4.61538 7.94302 6.22134 6.46838 8.2024 6.46838C8.75926 6.46838 9.30849 6.58743 9.80655 6.81611L10.4252 7.10014L11.1132 5.83663L10.4946 5.55258C9.78288 5.22583 8.99811 5.05572 8.2024 5.05572ZM12.3077 6.46838V7.88105H10.7692V9.29371H12.3077V10.7064H10.7692V12.119H12.3077V13.5317H13.8462V12.119H15.3846V13.5317H16.9231V12.119H18.4615V10.7064H16.9231V9.29371H18.4615V7.88105H16.9231V6.46838H15.3846V7.88105H13.8462V6.46838H12.3077Z" fill="black"/>
</svg>
