<svg width="20" height="20" viewBox="0 0 20 20" fill="none" xmlns="http://www.w3.org/2000/svg">
<g clip-path="url(#clip0_86_125)">
<path d="M10 0C4.47563 0 0 4.47563 0 10C0 15.5244 4.47563 20 10 20C15.5244 20 20 15.5244 20 10C20 4.47563 15.5244 0 10 0ZM5.80062 6.4C6.42875 6.4 6.9175 6.85812 6.9725 7.39937C7.03188 7.8875 6.82937 8.31437 6.28937 8.57125C6.0025 8.71437 5.88875 8.71438 5.83 8.62938C5.80062 8.57125 5.83 8.51625 5.88812 8.45687C6.40312 8.03125 6.40312 7.68625 6.34375 7.20125C6.31437 6.88563 6.08687 6.68625 5.85875 6.68625C4.85625 6.68625 3.43063 8.91313 3.62875 10.5438C3.71688 11.1719 4.08812 11.9144 4.88562 11.9144C5.14313 11.9144 5.43 11.8294 5.68625 11.7163C6.10312 11.4944 6.35375 11.3256 6.60125 11.0487C6.53938 10.3094 7.18687 9.34313 8.14375 9.34313C8.57375 9.34313 8.91562 9.51562 8.94438 9.83125C9 10.2581 8.62875 10.3162 8.515 10.3162C8.40062 10.3162 8.19938 10.2869 8.19938 10.1731C8.17375 10.0588 8.45625 10.115 8.43 9.8575C8.40063 9.685 8.22813 9.63 8.05938 9.63C7.45688 9.63 7.115 10.46 7.2 10.9706C7.22938 11.2013 7.3425 11.43 7.57438 11.43C7.74375 11.43 8.00125 11.1725 8.085 10.8019C8.14312 10.5444 8.37187 10.3719 8.57312 10.3719C8.65812 10.3719 8.71313 10.4012 8.7425 10.515V10.6294C8.71688 10.7437 8.62813 11.0887 8.65812 11.1725C8.65812 11.2319 8.6875 11.3156 8.80062 11.3156C8.87563 11.3156 9.1625 11.1656 9.44875 10.9312C9.54313 10.4394 9.65688 9.85063 9.65688 9.80188C9.68625 9.6 9.77125 9.40125 10.1713 9.40125C10.2587 9.40125 10.3144 9.43062 10.3438 9.54437V9.65875L10.2294 10.1731C10.6013 9.68813 11.1444 9.34625 11.4862 9.34625C11.6294 9.34625 11.7438 9.43062 11.7438 9.57375C11.7438 9.65875 11.7437 9.80188 11.6844 9.94563C11.5712 10.2581 11.4275 10.7462 11.3425 11.1725C11.3425 11.2869 11.3719 11.4006 11.515 11.4006C11.6581 11.4006 12.085 11.2312 12.4269 10.7725L12.4337 10.7694C12.4337 10.7138 12.4269 10.6587 12.4269 10.6038C12.4269 10.2587 12.4563 9.97563 12.515 9.77375C12.5731 9.54562 12.8569 9.34688 13.0294 9.34688C13.1138 9.34688 13.2019 9.40187 13.2019 9.48687C13.2019 9.51625 13.2019 9.57438 13.1725 9.60125C13.0581 9.97563 12.97 10.3169 12.97 10.6588C12.97 10.8606 13 11.1438 13.0581 11.3163C13.0581 11.3456 13.0838 11.3744 13.1131 11.3744C13.1725 11.3744 13.5725 11.0037 13.8556 10.515C13.5981 10.3456 13.455 10.0594 13.455 9.7175C13.455 9.11563 13.83 8.8025 14.1719 8.8025C14.4587 8.8025 14.6862 9.00187 14.6862 9.40188C14.6862 9.65938 14.6013 9.94625 14.4588 10.2025H14.5431C14.7256 10.2094 14.905 10.1344 15.0281 10.0044C15.0575 9.95875 15.0963 9.92625 15.1425 9.90687C15.4225 9.55188 15.8325 9.28875 16.3175 9.28875C16.7175 9.28875 17.0856 9.46125 17.115 9.77375C17.1731 10.2031 16.7994 10.2881 16.685 10.2881C16.5719 10.2881 16.37 10.2587 16.37 10.145C16.37 10.0312 16.6269 10.0869 16.6006 9.8325C16.5713 9.66 16.3988 9.60188 16.2262 9.60188C15.6562 9.60188 15.2856 10.3438 15.3694 10.9462C15.3987 11.1737 15.5125 11.4313 15.7413 11.4313C15.9138 11.4313 16.1706 11.1737 16.2844 10.8031C16.3394 10.5756 16.5712 10.3731 16.7694 10.3731C16.8569 10.3731 16.9125 10.4025 16.9419 10.5163C16.9419 10.5756 16.9419 10.6888 16.8275 11.0606C16.6844 11.3175 16.6844 11.4606 16.7144 11.575C16.74 11.8025 16.8544 11.975 16.9712 12.06C16.9969 12.0894 17.0269 12.1444 17.0269 12.1444C17.0269 12.2037 16.9969 12.2619 16.9125 12.2619C16.8831 12.2619 16.8569 12.2619 16.8275 12.2325C16.3981 12.06 16.2256 11.7731 16.17 11.4869C15.9975 11.6888 15.7994 11.8025 15.5681 11.8025C15.1962 11.8025 14.8287 11.4606 14.7706 11.0306C14.7537 10.8488 14.7731 10.6631 14.8325 10.4906C14.6631 10.5981 14.4806 10.66 14.3119 10.66H14.1719C13.7975 11.2031 13.3969 11.575 13.1138 11.7444C13.0163 11.7963 12.9087 11.8263 12.7981 11.8319C12.7431 11.8319 12.6556 11.8025 12.6287 11.7444C12.5481 11.6175 12.4987 11.4187 12.4662 11.1912C12.0656 11.6269 11.5119 11.8612 11.2556 11.8612C10.9688 11.8612 10.8 11.6888 10.7706 11.4031V11.0906C10.855 10.4625 11.0863 10.0881 11.0863 9.97375C11.0831 9.94438 11.0594 9.91813 11.0269 9.91562C10.8287 9.91562 10.1712 10.6025 10.0569 11.0612L9.96938 11.4319C9.91375 11.6888 9.65687 11.8612 9.48438 11.8612C9.39937 11.8612 9.34125 11.8319 9.315 11.7188V11.6044L9.35063 11.4094C8.98875 11.6662 8.6275 11.8319 8.455 11.8319C8.19812 11.8319 8.055 11.6888 8.02938 11.4869C7.85687 11.7188 7.6575 11.8319 7.40125 11.8319C7.10437 11.8319 6.81875 11.63 6.68188 11.3375C6.47625 11.5681 6.245 11.7994 5.97188 11.975C5.57188 12.2325 5.11625 12.4306 4.57188 12.4306C4.08687 12.4306 3.6575 12.1731 3.42937 11.9456C3.08437 11.63 2.88625 11.145 2.85687 10.6887C2.6875 9.28937 3.54375 7.48875 4.855 6.68813C5.17063 6.51562 5.48688 6.4025 5.79938 6.4025L5.80062 6.4ZM13.9419 9.14437C13.8575 9.14437 13.7994 9.2875 13.7994 9.42688C13.7994 9.65875 13.9125 9.915 14.0562 10.0588C14.1156 9.90312 14.1413 9.73687 14.1444 9.57063C14.1444 9.28813 14.03 9.145 13.9419 9.145V9.14437Z" fill="black"/>
</g>
<defs>
<clipPath id="clip0_86_125">
<rect width="20" height="20" fill="white"/>
</clipPath>
</defs>
</svg>
