<svg width="18" height="18" viewBox="0 0 18 18" fill="none" xmlns="http://www.w3.org/2000/svg">
<path d="M12.3245 6.17573C12.0907 5.94142 11.7118 5.94142 11.4781 6.17573C11.2443 6.41005 11.2443 6.78995 11.4781 7.02427L11.6149 7.16152C12.159 7.70688 12.5235 8.07409 12.7595 8.38409C12.9848 8.68017 13.0358 8.85257 13.0358 9.00001C13.0358 9.14745 12.9848 9.31985 12.7595 9.61593C12.5235 9.92593 12.159 10.2931 11.6149 10.8385L11.4781 10.9758C11.2443 11.2101 11.2443 11.5899 11.4781 11.8243C11.7118 12.0586 12.0907 12.0586 12.3245 11.8243L12.4908 11.6576C12.9978 11.1494 13.4207 10.7255 13.7112 10.3439C14.0179 9.94097 14.233 9.51529 14.233 9.00001C14.233 8.48473 14.0179 8.05905 13.7112 7.65616C13.4207 7.27446 12.9978 6.85065 12.4908 6.34241L12.3245 6.17573Z" fill="#0B192C"/>
<path d="M10.3723 4.25733C10.7409 4.34888 10.9597 4.70005 10.8609 5.0417L8.476 13.2899C8.37722 13.6315 7.99822 13.8343 7.62955 13.7428C7.26088 13.6512 7.04212 13.3 7.14091 12.9584L9.52581 4.71019C9.62459 4.36854 10.0036 4.16579 10.3723 4.25733Z" fill="#0B192C"/>
<path d="M6.5225 6.17573C6.28874 5.94142 5.90975 5.94142 5.676 6.17573L5.50972 6.34241C5.00267 6.85065 4.57984 7.27446 4.28932 7.65616C3.98266 8.05905 3.76758 8.48473 3.76758 9.00001C3.76758 9.51529 3.98266 9.94097 4.28932 10.3439C4.57984 10.7255 5.00266 11.1494 5.50971 11.6576L5.676 11.8243C5.90975 12.0586 6.28874 12.0586 6.5225 11.8243C6.75625 11.5899 6.75625 11.2101 6.5225 10.9758L6.38556 10.8385C5.84155 10.2931 5.47701 9.92593 5.24106 9.61593C5.01566 9.31985 4.96471 9.14745 4.96471 9.00001C4.96471 8.85257 5.01566 8.68017 5.24106 8.38409C5.47701 8.07409 5.84155 7.70688 6.38556 7.16152L6.5225 7.02427C6.75625 6.78995 6.75625 6.41005 6.5225 6.17573Z" fill="#0B192C"/>
<path fill-rule="evenodd" clip-rule="evenodd" d="M9 0C4.02944 0 0 4.02944 0 9C0 13.9706 4.02944 18 9 18C13.9706 18 18 13.9706 18 9C18 4.02944 13.9706 0 9 0ZM1.25581 9C1.25581 4.72301 4.72301 1.25581 9 1.25581C13.277 1.25581 16.7442 4.72301 16.7442 9C16.7442 13.277 13.277 16.7442 9 16.7442C4.72301 16.7442 1.25581 13.277 1.25581 9Z" fill="#0B192C"/>
</svg>
