<svg width="17" height="15" viewBox="0 0 17 15" fill="none" xmlns="http://www.w3.org/2000/svg">
<path d="M14.5 1H2.5C1.67157 1 1 1.83147 1 2.85714V12.1429C1 13.1685 1.67157 14 2.5 14H14.5C15.3284 14 16 13.1685 16 12.1429V2.85714C16 1.83147 15.3284 1 14.5 1Z" stroke="#0B192C" stroke-width="1.5" stroke-linecap="round" stroke-linejoin="bevel"/>
<path d="M1.43555 1.54785L7.60805 9.18071C7.74736 9.35338 7.91279 9.49036 8.09489 9.58382C8.27698 9.67728 8.47217 9.72538 8.6693 9.72538C8.86642 9.72538 9.06161 9.67728 9.24371 9.58382C9.4258 9.49036 9.59124 9.35338 9.73055 9.18071L15.7305 1.75214" stroke="#0B192C" stroke-width="1.5" stroke-linecap="round" stroke-linejoin="round"/>
</svg>
