<svg width="24" height="24" viewBox="0 0 24 24" fill="none" xmlns="http://www.w3.org/2000/svg">
<path d="M23.9998 11.9258C23.9717 9.62486 23.2907 7.37994 22.037 5.4554C20.7832 3.53086 19.0091 2.00683 16.9235 1.06282C14.8377 0.118814 12.5273 -0.205862 10.2643 0.127009C8.00141 0.459896 5.88011 1.43646 4.15031 2.94174C2.42049 4.44701 1.1542 6.41828 0.500552 8.62338C-0.153077 10.8285 -0.166847 13.1756 0.460891 15.3884C1.08863 17.6011 2.33172 19.5872 4.04376 21.1129C5.75579 22.6386 7.86549 23.6403 10.1244 24V15.4424H7.12431V11.9258H10.1244V9.25433C10.0549 8.63321 10.1218 8.00427 10.3204 7.41197C10.519 6.81967 10.8444 6.27844 11.2736 5.82649C11.7027 5.37452 12.2252 5.02284 12.8042 4.79628C13.3832 4.56971 14.0047 4.47377 14.6245 4.51524C15.5242 4.52763 16.4219 4.60836 17.3096 4.75673V7.77529H15.8095C15.5509 7.74246 15.2881 7.76854 15.0409 7.85159C14.7936 7.93465 14.568 8.07255 14.3808 8.25512C14.1935 8.43768 14.0495 8.66024 13.9594 8.9063C13.8691 9.15246 13.835 9.41583 13.8595 9.67693V11.9559H17.1896L16.6496 15.4726H13.8745V23.9245C16.7094 23.4734 19.2898 22.0148 21.1474 19.8134C23.0051 17.612 24.017 14.8136 23.9998 11.9258Z" fill="#0B192C"/>
</svg>
