<svg width="22" height="22" viewBox="0 0 22 22" fill="none" xmlns="http://www.w3.org/2000/svg">
<path d="M11 1H6C3.23858 1 1 2.49239 1 4.33333C1 6.17428 3.23858 7.66667 6 7.66667M11 1V7.66667M11 1H16C18.7615 1 21 2.49239 21 4.33333C21 6.17428 18.7615 7.66667 16 7.66667M6 7.66667H11M6 7.66667C3.23858 7.66667 1 9.159 1 11C1 12.841 3.23858 14.3333 6 14.3333M11 7.66667H16M11 7.66667V14.3333M16 7.66667C18.7615 7.66667 21 9.159 21 11C21 12.841 18.7615 14.3333 16 14.3333C13.2385 14.3333 11 12.841 11 11C11 9.159 13.2385 7.66667 16 7.66667ZM11 14.3333H6M11 14.3333V17.6667C11 19.5077 8.7615 21 6 21C3.23858 21 1 19.5077 1 17.6667C1 15.8257 3.23858 14.3333 6 14.3333" stroke="black" stroke-width="2" stroke-linecap="round" stroke-linejoin="round"/>
</svg>
