<svg width="78" height="78" viewBox="0 0 78 78" fill="none" xmlns="http://www.w3.org/2000/svg">
<g filter="url(#filter0_d_117_101)">
<rect x="4" width="70" height="70" rx="20" fill="black"/>
</g>
<path fill-rule="evenodd" clip-rule="evenodd" d="M25.6992 23.6775C25.6992 19.8765 28.8623 16.8 32.7631 16.8H44.8853C48.7861 16.8 51.9492 19.8792 51.9492 23.6775C51.9446 24.8268 51.6499 25.9563 51.0923 26.9612C50.5348 27.9662 49.7325 28.8141 48.7598 29.4263C49.7325 30.0385 50.5348 30.8864 51.0923 31.8914C51.6499 32.8963 51.9446 34.0258 51.9492 35.175C51.9492 38.9734 48.7861 42.0525 44.8853 42.0525H44.7305C42.9813 42.0581 41.2909 41.4221 39.9792 40.2649V46.599C39.9792 50.4473 36.7373 53.55 32.8051 53.55C28.9096 53.55 25.6992 50.4788 25.6992 46.6725C25.7038 45.5233 25.9986 44.3938 26.5561 43.3889C27.1137 42.3839 27.916 41.536 28.8886 40.9238C27.916 40.3116 27.1137 39.4637 26.5561 38.4587C25.9986 37.4538 25.7038 36.3243 25.6992 35.175C25.7038 34.0258 25.9986 32.8963 26.5561 31.8914C27.1137 30.8864 27.916 30.0385 28.8886 29.4263C27.916 28.8141 27.1137 27.9662 26.5561 26.9612C25.9986 25.9563 25.7038 24.8268 25.6992 23.6775ZM37.6692 30.5524H32.7605C30.1355 30.5524 28.0092 32.6209 28.0092 35.175C28.0092 37.7213 30.1223 39.7819 32.7316 39.7977H37.664V30.555L37.6692 30.5524ZM39.9792 35.175C39.9792 37.7292 42.1081 39.7977 44.7305 39.7977H44.8853C47.5103 39.7977 49.6366 37.7292 49.6366 35.1777C49.6366 32.6209 47.5103 30.5524 44.8853 30.5524H44.7305C42.1081 30.5524 39.9792 32.6209 39.9792 35.175ZM32.7631 42.0525H32.7342C30.125 42.0657 28.0145 44.1315 28.0145 46.6725C28.0145 49.2188 30.167 51.2978 32.8025 51.2978C35.4773 51.2978 37.6666 49.1847 37.6666 46.599V42.0525H32.7631ZM32.7631 19.0523H37.6692V28.3002H32.7631C30.1381 28.3002 28.0118 26.229 28.0118 23.6749C28.0118 21.1234 30.1381 19.0523 32.7631 19.0523ZM39.9818 28.3002V19.0523H44.8853C47.5103 19.0523 49.6366 21.1234 49.6366 23.6749C49.6366 26.229 47.5103 28.3002 44.8853 28.3002H39.9792H39.9818Z" fill="white"/>
<defs>
<filter id="filter0_d_117_101" x="0" y="0" width="78" height="78" filterUnits="userSpaceOnUse" color-interpolation-filters="sRGB">
<feFlood flood-opacity="0" result="BackgroundImageFix"/>
<feColorMatrix in="SourceAlpha" type="matrix" values="0 0 0 0 0 0 0 0 0 0 0 0 0 0 0 0 0 0 127 0" result="hardAlpha"/>
<feOffset dy="4"/>
<feGaussianBlur stdDeviation="2"/>
<feComposite in2="hardAlpha" operator="out"/>
<feColorMatrix type="matrix" values="0 0 0 0 0 0 0 0 0 0 0 0 0 0 0 0 0 0 0.25 0"/>
<feBlend mode="normal" in2="BackgroundImageFix" result="effect1_dropShadow_117_101"/>
<feBlend mode="normal" in="SourceGraphic" in2="effect1_dropShadow_117_101" result="shape"/>
</filter>
</defs>
</svg>
