<svg width="20" height="20" viewBox="0 0 20 20" fill="none" xmlns="http://www.w3.org/2000/svg">
<path d="M19.6206 9.10843L10.8882 0.376767C10.6548 0.144038 10.3328 0 9.97666 0C9.62057 0 9.29848 0.144038 9.06508 0.376767L7.25593 2.18925L9.55588 4.4892C9.70259 4.43785 9.8713 4.40851 10.0473 4.40851C10.8936 4.40851 11.5791 5.09403 11.5791 5.94025C11.5791 6.11963 11.5484 6.29101 11.4917 6.45105L11.4951 6.44038L13.7103 8.65698C13.8584 8.60429 14.0297 8.57362 14.2078 8.57362C15.0533 8.57362 15.7389 9.25914 15.7389 10.1047C15.7389 10.9503 15.0533 11.6358 14.2078 11.6358C13.3622 11.6358 12.6767 10.9503 12.6767 10.1047C12.6767 9.89597 12.7187 9.69725 12.7941 9.51587L12.7901 9.52587L10.7162 7.46266V12.9001C11.2257 13.1568 11.5691 13.6756 11.5691 14.2745C11.5691 15.1214 10.8822 15.8082 10.0353 15.8082C9.18845 15.8082 8.5016 15.1214 8.5016 14.2745C8.5016 13.8517 8.67231 13.4696 8.94905 13.1922C9.08976 13.0515 9.25714 12.9375 9.44318 12.8574L9.45319 12.8534V7.36263C8.8917 7.12657 8.50493 6.58042 8.50493 5.94492C8.50493 5.73153 8.54828 5.52881 8.62697 5.34409L8.62297 5.35409L6.36303 3.08349L0.374767 9.06775C0.142705 9.30181 0 9.6239 0 9.97999C0 10.3361 0.143372 10.6582 0.375433 10.8922L9.10843 19.6226C9.34116 19.856 9.66324 20 10.0193 20C10.3754 20 10.6969 19.856 10.9302 19.6226L19.6219 10.9309C19.8553 10.6982 20 10.3754 20 10.02C20 9.66458 19.8553 9.34182 19.6219 9.1091L19.6206 9.10843Z" fill="black"/>
</svg>
