<svg width="15" height="15" viewBox="0 0 15 15" fill="none" xmlns="http://www.w3.org/2000/svg">
<path fill-rule="evenodd" clip-rule="evenodd" d="M7.0502 0.201847C7.30213 -0.0672823 7.69787 -0.0672823 7.94981 0.201847L13.1672 5.77676L14.7976 7.51895C15.0584 7.79758 15.0685 8.26075 14.8201 8.55344C14.5717 8.84605 14.1589 8.85732 13.898 8.57861L13.3696 8.01395V13.5366C13.3696 14.3448 12.7856 15 12.0652 15H8.80435H6.19565H2.93478C2.21441 15 1.63044 14.3448 1.63044 13.5366V8.01395L1.10195 8.57861C0.841123 8.85732 0.428317 8.84605 0.179911 8.55344C-0.0684926 8.26075 -0.0584243 7.79758 0.2024 7.51895L1.83283 5.77676L7.0502 0.201847ZM2.93478 6.62019V13.5366H5.54348V9.87805C5.54348 8.66568 6.41941 7.68293 7.5 7.68293C8.58059 7.68293 9.45652 8.66568 9.45652 9.87805V13.5366H12.0652V6.62019L7.5 1.74216L2.93478 6.62019ZM8.15218 13.5366V9.87805C8.15218 9.47393 7.8602 9.14634 7.5 9.14634C7.13981 9.14634 6.84783 9.47393 6.84783 9.87805V13.5366H8.15218Z" fill="#0B192C"/>
</svg>
