<svg width="20" height="20" viewBox="0 0 20 20" fill="none" xmlns="http://www.w3.org/2000/svg">
<path d="M0 0L1.82008 18.0009L9.98771 20L18.1779 17.998L20 0H0ZM16.2034 4.27185L16.0894 5.39107L16.0394 5.88739H16.0311H10H9.99126H6.45803L6.68685 8.14811H9.99126H10H15.1367H15.8114L15.7503 8.74091L15.1619 14.5533L15.1243 14.926L10 16.1783V16.1788L9.9885 16.1816L4.85962 14.9261L4.50883 11.4597H5.66726H7.02224L7.2005 13.2204L9.98895 13.8844L9.99126 13.8838V13.8836L12.784 13.2191L13.0743 10.3558H10H9.99126H4.39697L3.78162 4.27185L3.72165 3.67963H9.9913H10H16.2633L16.2034 4.27185Z" fill="black"/>
</svg>
