<svg width="24" height="24" viewBox="0 0 24 24" fill="none" xmlns="http://www.w3.org/2000/svg">
<path d="M12.8695 0C18.9913 0 24 5.00872 24 11.1305V12.8695C24 18.9913 18.9913 24 12.8695 24H11.1305C5.00872 24 0 18.9913 0 12.8695V11.1305C0 5.00872 5.00872 0 11.1305 0H12.8695ZM12.2188 6.03217L12.0639 6.03197C10.7744 6.03197 9.48491 6.07459 9.48491 6.07459C7.60145 6.07459 6.07459 7.60145 6.07459 9.48491C6.07459 9.48491 6.03545 10.5922 6.03219 11.7807L6.03197 11.9361C6.03197 13.2668 6.07459 14.643 6.07459 14.643C6.07459 16.5264 7.60145 18.0533 9.48491 18.0533C9.48491 18.0533 10.6906 18.0959 11.9361 18.0959C13.2668 18.0959 14.6856 18.0533 14.6856 18.0533C16.5691 18.0533 18.0533 16.5691 18.0533 14.6856C18.0533 14.6856 18.0959 13.3249 18.0959 12.0213L18.0951 11.7154C18.0894 10.5458 18.0533 9.44226 18.0533 9.44226C18.0533 7.5588 16.569 6.07459 14.6856 6.07459C14.6856 6.07459 13.4579 6.03531 12.2188 6.03217ZM12.0639 7.1177C13.1214 7.1177 14.4772 7.15266 14.4772 7.15266C16.0216 7.15266 16.9752 8.10625 16.9752 9.65069C16.9752 9.65069 17.0102 10.9833 17.0102 12.0289C17.0102 13.0979 16.9752 14.4771 16.9752 14.4771C16.9752 16.0216 16.0216 16.9751 14.4772 16.9751C14.4772 16.9751 13.2782 17.0045 12.2379 17.0094L11.9591 17.0101C10.9378 17.0101 9.69335 16.9751 9.69335 16.9751C8.14892 16.9751 7.15269 15.9789 7.15269 14.4345C7.15269 14.4345 7.11772 13.0502 7.11772 11.959C7.11772 10.9377 7.15269 9.65069 7.15269 9.65069C7.15269 8.10625 8.14895 7.15266 9.69335 7.15266C9.69335 7.15266 11.0065 7.1177 12.0639 7.1177ZM12.0639 8.974C10.3574 8.974 8.974 10.3574 8.974 12.0639C8.974 13.7704 10.3574 15.1538 12.0639 15.1538C13.7704 15.1538 15.1538 13.7704 15.1538 12.0639C15.1538 10.3574 13.7704 8.974 12.0639 8.974ZM12.0639 10.0532C13.1744 10.0532 14.0746 10.9534 14.0746 12.0639C14.0746 13.1744 13.1744 14.0746 12.0639 14.0746C10.9535 14.0746 10.0532 13.1744 10.0532 12.0639C10.0532 10.9534 10.9534 10.0532 12.0639 10.0532ZM15.3017 8.11653C14.8893 8.11653 14.5551 8.45246 14.5551 8.86683C14.5551 9.2812 14.8893 9.6171 15.3017 9.6171C15.714 9.6171 16.0483 9.2812 16.0483 8.86683C16.0483 8.45243 15.714 8.11653 15.3017 8.11653Z" fill="#0B192C"/>
</svg>
