<svg width="78" height="78" viewBox="0 0 78 78" fill="none" xmlns="http://www.w3.org/2000/svg">
<g filter="url(#filter0_d_117_97)">
<rect x="4" width="70" height="70" rx="20" fill="black"/>
</g>
<path d="M36.4106 34.7526C36.4106 39.1188 36.7273 42.7876 34.5401 44.9588C33.3099 46.1803 31.3688 46.8999 28.9805 46.8999C25.0632 46.8999 22.8882 45.0202 21.5 42.4192C22.8364 41.5787 24.2022 40.7662 25.5942 39.9801C26.1621 41.5444 28.0799 43.3032 30.2441 42.2206C31.6158 41.5338 31.4574 39.4518 31.4574 37.192C31.4574 32.4999 31.4574 27.0872 31.4574 22.8539C31.4531 22.7835 31.4489 22.7131 31.5076 22.7046C33.1422 22.7046 34.7766 22.7046 36.4107 22.7046C36.4106 26.4755 36.4106 30.7417 36.4106 34.7526ZM48.8443 31.9151C47.5945 31.388 46.041 30.7643 45.6602 29.6246C45.2333 28.3472 45.9613 27.2948 46.7719 26.9367C48.5543 26.1482 50.6786 27.4465 51.1187 28.7786C52.46 27.9922 53.797 27.201 55.0109 26.2894C53.5845 23.9562 51.4935 22.286 47.6819 22.4061C45.5833 22.4722 44.0068 23.1247 42.8298 24.0987C41.6811 25.0489 40.7941 26.3826 40.656 28.2807C40.2433 33.962 44.5593 35.4122 48.2379 36.9928C49.3975 37.4911 50.6866 37.9941 51.2201 38.9842C52.3202 41.0271 50.3715 42.3749 48.6928 42.5191C45.9986 42.7503 44.182 41.1977 43.1329 39.5817C41.8224 40.3818 40.3974 41.069 39.1398 41.9216C40.889 44.9513 43.7569 46.9126 48.2379 46.9C52.8091 46.8873 56.1981 44.7164 56.4763 40.6273C56.8546 35.0694 52.6271 33.5102 48.8443 31.9151Z" fill="white"/>
<defs>
<filter id="filter0_d_117_97" x="0" y="0" width="78" height="78" filterUnits="userSpaceOnUse" color-interpolation-filters="sRGB">
<feFlood flood-opacity="0" result="BackgroundImageFix"/>
<feColorMatrix in="SourceAlpha" type="matrix" values="0 0 0 0 0 0 0 0 0 0 0 0 0 0 0 0 0 0 127 0" result="hardAlpha"/>
<feOffset dy="4"/>
<feGaussianBlur stdDeviation="2"/>
<feComposite in2="hardAlpha" operator="out"/>
<feColorMatrix type="matrix" values="0 0 0 0 0 0 0 0 0 0 0 0 0 0 0 0 0 0 0.25 0"/>
<feBlend mode="normal" in2="BackgroundImageFix" result="effect1_dropShadow_117_97"/>
<feBlend mode="normal" in="SourceGraphic" in2="effect1_dropShadow_117_97" result="shape"/>
</filter>
</defs>
</svg>
