<svg width="78" height="78" viewBox="0 0 78 78" fill="none" xmlns="http://www.w3.org/2000/svg">
<g filter="url(#filter0_d_117_86)">
<rect x="4" width="70" height="70" rx="20" fill="black"/>
</g>
<path d="M30.6 26.6L31.735 25.7803C31.3794 25.288 30.7471 25.0811 30.1693 25.2679C29.5915 25.4547 29.2 25.9928 29.2 26.6H30.6ZM39 53.2C28.9484 53.2 20.8 45.0517 20.8 35H18C18 46.5979 27.402 56 39 56V53.2ZM57.2 35C57.2 45.0517 49.0517 53.2 39 53.2V56C50.5979 56 60 46.5979 60 35H57.2ZM39 16.8C49.0517 16.8 57.2 24.9484 57.2 35H60C60 23.402 50.5979 14 39 14V16.8ZM39 14C27.402 14 18 23.402 18 35H20.8C20.8 24.9484 28.9484 16.8 39 16.8V14ZM32 47.6V26.6H29.2V47.6H32ZM29.465 27.4197L47.6652 52.6196L49.9348 50.9804L31.735 25.7803L29.465 27.4197ZM46 25.2V42H48.8V25.2H46Z" fill="white"/>
<defs>
<filter id="filter0_d_117_86" x="0" y="0" width="78" height="78" filterUnits="userSpaceOnUse" color-interpolation-filters="sRGB">
<feFlood flood-opacity="0" result="BackgroundImageFix"/>
<feColorMatrix in="SourceAlpha" type="matrix" values="0 0 0 0 0 0 0 0 0 0 0 0 0 0 0 0 0 0 127 0" result="hardAlpha"/>
<feOffset dy="4"/>
<feGaussianBlur stdDeviation="2"/>
<feComposite in2="hardAlpha" operator="out"/>
<feColorMatrix type="matrix" values="0 0 0 0 0 0 0 0 0 0 0 0 0 0 0 0 0 0 0.25 0"/>
<feBlend mode="normal" in2="BackgroundImageFix" result="effect1_dropShadow_117_86"/>
<feBlend mode="normal" in="SourceGraphic" in2="effect1_dropShadow_117_86" result="shape"/>
</filter>
</defs>
</svg>
