<svg width="17" height="17" viewBox="0 0 17 17" fill="none" xmlns="http://www.w3.org/2000/svg">
<path d="M11.125 6.25L11.2537 6.37868C12.2537 7.37867 12.7537 7.8787 12.7537 8.5C12.7537 9.1213 12.2537 9.62132 11.2537 10.6213L11.125 10.75" stroke="#1C274C" stroke-width="1.5" stroke-linecap="round"/>
<path d="M9.47037 4.87781L8.4998 8.5L7.5293 12.1223" stroke="#1C274C" stroke-width="1.5" stroke-linecap="round"/>
<path d="M5.87478 6.25L5.74609 6.37868C4.7461 7.37867 4.24609 7.8787 4.24609 8.5C4.24609 9.1213 4.7461 9.62132 5.74609 10.6213L5.87478 10.75" stroke="#1C274C" stroke-width="1.5" stroke-linecap="round"/>
<path d="M1 8.5C1 4.96446 1 3.1967 2.09835 2.09835C3.1967 1 4.96446 1 8.5 1C12.0355 1 13.8033 1 14.9016 2.09835C16 3.1967 16 4.96446 16 8.5C16 12.0355 16 13.8033 14.9016 14.9016C13.8033 16 12.0355 16 8.5 16C4.96446 16 3.1967 16 2.09835 14.9016C1 13.8033 1 12.0355 1 8.5Z" stroke="#1C274C" stroke-width="1.5"/>
</svg>
