<svg width="20" height="20" viewBox="0 0 20 20" fill="none" xmlns="http://www.w3.org/2000/svg">
<path d="M8.20833 6.94047C7.9 6.81226 7.56667 6.76097 7.225 6.76952C7.00833 6.76952 6.81667 6.76952 6.65833 6.77807C6.49167 6.76952 6.375 6.77807 6.31667 6.78661V9.65853C6.43333 9.66708 6.54167 9.67563 6.64167 9.67563H7.08333C7.40833 9.67563 7.73333 9.62434 8.04167 9.52177C8.30833 9.44485 8.54167 9.28245 8.725 9.06876C8.9 8.85508 8.98333 8.56447 8.98333 8.18838C8.99167 7.92342 8.925 7.65845 8.79167 7.42767C8.65 7.20544 8.45 7.03449 8.20833 6.94047ZM16.4583 0H3.54167C1.58333 0 0 1.624 0 3.63263V16.3674C0 18.376 1.58333 20 3.54167 20H16.4583C18.4167 20 20 18.376 20 16.3674V3.63263C20 1.624 18.4167 0 16.4583 0ZM10.2992 9.95769C9.96667 10.4363 9.5 10.7953 8.95833 11.0005C8.39167 11.2142 7.76667 11.2911 7.08333 11.2911C6.88333 11.2911 6.75 11.2911 6.66667 11.2825C6.58333 11.274 6.46667 11.274 6.30833 11.274V14.0168C6.31667 14.0767 6.275 14.1288 6.21667 14.1374H4.6C4.53333 14.1374 4.5 14.1023 4.5 14.0254V5.23099C4.5 5.17116 4.525 5.13697 4.58333 5.13697C4.725 5.13697 4.85833 5.13697 5.05 5.12842C5.25 5.11988 5.45833 5.11988 5.68333 5.11133C5.90833 5.10278 6.15 5.10278 6.40833 5.09423C6.66667 5.08569 6.91667 5.08569 7.16667 5.08569C7.85 5.08569 8.41667 5.17116 8.88333 5.35066C9.3 5.49596 9.68333 5.73529 10 6.05154C10.2667 6.32506 10.475 6.6584 10.6083 7.02594C10.7325 7.38493 10.7992 7.75247 10.7992 8.1371C10.8 8.87217 10.6333 9.47904 10.2992 9.95769ZM16.2083 13.2826C15.975 13.6245 15.6492 13.8886 15.275 14.0442C14.8667 14.2228 14.3667 14.316 13.7658 14.316C13.3833 14.316 13.0075 14.2827 12.6333 14.2057C12.3417 14.1536 12.05 14.0604 11.7833 13.9322C11.725 13.8989 11.6825 13.8391 11.6908 13.7707V12.2834C11.6908 12.2586 11.7 12.2236 11.725 12.2065C11.7492 12.1894 11.775 12.198 11.8 12.2151C12.125 12.4116 12.4667 12.5493 12.8333 12.6339C13.1492 12.7193 13.4825 12.7621 13.8167 12.7621C14.1333 12.7621 14.3583 12.7185 14.5083 12.6416C14.6417 12.5817 14.7333 12.4364 14.7333 12.2826C14.7333 12.1621 14.6667 12.0518 14.5333 11.9407C14.4 11.8304 14.1258 11.7022 13.7175 11.5381C13.2925 11.3842 12.9017 11.1791 12.5342 10.9235C12.2758 10.7346 12.06 10.4876 11.9 10.197C11.7675 9.9235 11.7008 9.62434 11.7092 9.32433C11.7092 8.95679 11.8092 8.60635 11.9933 8.2901C12.2017 7.9482 12.5092 7.67469 12.8675 7.50374C13.2583 7.29946 13.75 7.20544 14.3417 7.20544C14.6833 7.20544 15.0333 7.23108 15.375 7.28236C15.625 7.31655 15.8667 7.38493 16.0917 7.47895C16.1242 7.4875 16.1583 7.52169 16.175 7.55588C16.1833 7.59007 16.1917 7.62426 16.1917 7.65845V9.05167C16.1917 9.08586 16.175 9.12005 16.15 9.13714C16.075 9.15424 16.0333 9.15424 16 9.13714C15.75 9.00038 15.4833 8.90636 15.2 8.84653C14.8917 8.77815 14.5833 8.73542 14.2667 8.73542C14.1 8.72687 13.925 8.75251 13.7658 8.79525C13.6583 8.82089 13.5658 8.88072 13.5075 8.9662C13.4658 9.03457 13.4408 9.12005 13.4408 9.19697C13.4408 9.2739 13.4742 9.35083 13.525 9.41921C13.6 9.51323 13.6992 9.59015 13.8083 9.64999C13.9992 9.75255 14.2 9.84657 14.3992 9.93205C14.85 10.0859 15.2833 10.2996 15.6833 10.556C15.9583 10.7346 16.1833 10.9748 16.3408 11.2654C16.4742 11.5372 16.5408 11.8381 16.5325 12.145C16.5417 12.5475 16.425 12.9484 16.2083 13.2826Z" fill="black"/>
</svg>
