<svg width="78" height="78" viewBox="0 0 78 78" fill="none" xmlns="http://www.w3.org/2000/svg">
<g filter="url(#filter0_d_117_89)">
<rect x="4" width="70" height="70" rx="20" fill="black"/>
</g>
<path d="M39.0183 38.3095C40.7435 38.3095 42.142 36.911 42.142 35.1858C42.142 33.4606 40.7435 32.062 39.0183 32.062C37.2931 32.062 35.8945 33.4606 35.8945 35.1858C35.8945 36.911 37.2931 38.3095 39.0183 38.3095Z" fill="white"/>
<path d="M30.271 41.3964L29.5797 41.2197C24.4452 39.9229 21.5 37.7179 21.5 35.1787C21.5 32.6377 24.447 30.4344 29.5797 29.1377L30.271 28.9627L30.4652 29.6469C30.9842 31.4384 31.6491 33.1843 32.4532 34.8672L32.602 35.1787L32.4532 35.4902C31.6482 37.1754 30.9815 38.9219 30.4652 40.7139L30.271 41.3964ZM29.2613 30.7302C25.3605 31.8292 22.9647 33.5057 22.9647 35.1787C22.9647 36.8482 25.3588 38.5264 29.2613 39.6237C29.739 38.1047 30.3165 36.6189 30.985 35.1787C30.3117 33.736 29.7358 32.2499 29.2613 30.7302ZM47.7622 41.3964L47.5697 40.7104C47.0494 38.9186 46.384 37.1722 45.58 35.4884L45.4312 35.1787L45.58 34.8654C46.385 33.1837 47.0482 31.4354 47.5697 29.6434L47.7622 28.9609L48.4535 29.1359C53.5897 30.4327 56.5332 32.6359 56.5332 35.1787C56.5332 37.7197 53.588 39.9229 48.4535 41.2197L47.7622 41.3964ZM47.0447 35.1787C47.7447 36.6942 48.3275 38.1852 48.772 39.6237C52.6745 38.5264 55.0702 36.8482 55.0702 35.1787C55.0702 33.5057 52.6762 31.8309 48.772 30.7302C48.2947 32.2494 47.7177 33.7355 47.0447 35.1787Z" fill="white"/>
<path d="M29.2498 30.7232L29.0573 30.0407C27.6118 24.9517 28.0493 21.3065 30.2596 20.036C32.4208 18.7847 35.8981 20.2635 39.5398 23.9997L40.0368 24.5107L39.5398 25.02C38.2464 26.3652 37.0642 27.8131 36.0048 29.3495L35.8071 29.633L35.4641 29.661C33.6014 29.8073 31.7536 30.1052 29.9393 30.5517L29.2498 30.7232ZM32.0183 21.0475C31.6263 21.0475 31.2798 21.1332 30.9876 21.3012C29.5386 22.136 29.2831 25.0427 30.2806 28.9662C31.8398 28.6215 33.4131 28.3747 34.9986 28.2365C35.9165 26.9345 36.9178 25.6935 37.9963 24.5212C35.7161 22.304 33.5636 21.0475 32.0183 21.0475ZM46.0131 50.7695C43.9341 50.7695 41.2636 49.2015 38.4916 46.356L37.9963 45.8467L38.4916 45.3392C39.7853 43.9918 40.968 42.5422 42.0283 41.0045L42.2243 40.7245L42.5638 40.6912C44.4272 40.5475 46.2756 40.2507 48.0903 39.804L48.7816 39.629L48.9758 40.3132C50.4143 45.3987 49.9786 49.0492 47.7718 50.3197C47.236 50.6234 46.6289 50.7787 46.0131 50.7695ZM40.0368 45.8345C42.3153 48.0517 44.4696 49.31 46.0131 49.31C46.4068 49.31 46.7533 49.2225 47.0438 49.0562C48.4946 48.2197 48.7518 45.3077 47.7508 41.3842C46.1933 41.7307 44.6183 41.9792 43.0293 42.1175C42.1153 43.4214 41.1156 44.6632 40.0368 45.8345Z" fill="white"/>
<path d="M48.782 30.7232L48.0907 30.55C46.2761 30.102 44.4277 29.8041 42.5642 29.6592L42.2247 29.6295L42.0287 29.346C40.9699 27.8088 39.787 26.3608 38.492 25.0165L37.9967 24.5072L38.492 23.9997C42.132 20.2652 45.6075 18.7865 47.7722 20.036C49.9807 21.3082 50.42 24.9535 48.9762 30.0407L48.782 30.7232ZM43.0297 28.2365C44.6992 28.3852 46.2812 28.6355 47.7512 28.9662C48.7505 25.0427 48.495 22.136 47.0442 21.2995C45.6022 20.4647 42.888 21.7422 40.0372 24.5212C41.1152 25.6937 42.1162 26.9327 43.0297 28.2365ZM32.0187 50.7695C31.403 50.7783 30.7959 50.6231 30.26 50.3197C28.0497 49.0492 27.6122 45.4005 29.056 40.3132L29.245 39.629L29.9362 39.804C31.6232 40.2292 33.4817 40.5285 35.4627 40.6912L35.8022 40.7245L36 41.0045C37.057 42.541 38.24 43.9917 39.535 45.3392L40.032 45.8467L39.535 46.356C36.7647 49.2032 34.0942 50.7695 32.0187 50.7695ZM30.281 41.386C29.2835 45.3095 29.539 48.2215 30.988 49.058C32.4317 49.8805 35.1372 48.6117 37.9967 45.8345C36.9186 44.6618 35.9173 43.4208 34.999 42.1192C33.4119 41.9789 31.8358 41.7339 30.281 41.386Z" fill="white"/>
<path d="M39.0188 42.3047C37.8166 42.3047 36.5828 42.254 35.3438 42.1507L35.0008 42.121L34.8031 41.8375C34.1044 40.8328 33.447 39.8 32.8326 38.7417C32.2227 37.6806 31.6558 36.5953 31.1333 35.4885L30.9863 35.1787L31.1333 34.8655C31.6566 33.7595 32.2218 32.6745 32.8326 31.614C33.4398 30.571 34.1031 29.528 34.8031 28.5165L35.0008 28.2365L35.3438 28.205C37.7884 28.0002 40.2458 28.0002 42.6903 28.205L43.0298 28.2382L43.2276 28.5182C44.6272 30.5285 45.8565 32.6522 46.9026 34.8672L47.0478 35.1805L46.9026 35.4902C45.8594 37.7067 44.63 39.8306 43.2276 41.8392L43.0298 42.1227L42.6903 42.1525C41.4548 42.2522 40.2193 42.3047 39.0188 42.3047ZM35.8093 40.7227C37.9706 40.8855 40.0671 40.8855 42.2266 40.7227C43.4321 38.9573 44.5038 37.1041 45.4326 35.1787C44.5071 33.2515 43.4353 31.3981 42.2266 29.6347C40.0907 29.4702 37.9453 29.4702 35.8093 29.6347C34.5996 31.3975 33.5278 33.251 32.6033 35.1787C33.5341 37.1031 34.6057 38.9561 35.8093 40.7227Z" fill="white"/>
<defs>
<filter id="filter0_d_117_89" x="0" y="0" width="78" height="78" filterUnits="userSpaceOnUse" color-interpolation-filters="sRGB">
<feFlood flood-opacity="0" result="BackgroundImageFix"/>
<feColorMatrix in="SourceAlpha" type="matrix" values="0 0 0 0 0 0 0 0 0 0 0 0 0 0 0 0 0 0 127 0" result="hardAlpha"/>
<feOffset dy="4"/>
<feGaussianBlur stdDeviation="2"/>
<feComposite in2="hardAlpha" operator="out"/>
<feColorMatrix type="matrix" values="0 0 0 0 0 0 0 0 0 0 0 0 0 0 0 0 0 0 0.25 0"/>
<feBlend mode="normal" in2="BackgroundImageFix" result="effect1_dropShadow_117_89"/>
<feBlend mode="normal" in="SourceGraphic" in2="effect1_dropShadow_117_89" result="shape"/>
</filter>
</defs>
</svg>
