<svg width="20" height="20" viewBox="0 0 20 20" fill="none" xmlns="http://www.w3.org/2000/svg">
<g clip-path="url(#clip0_86_118)">
<path d="M12.0408 13.5334C11.5946 14.168 11.1083 14.7734 10.585 15.3459C11.9783 16.6984 13.275 17.3318 13.9933 16.9159C14.7133 16.5009 14.8125 15.0618 14.3383 13.1793C13.6275 13.3376 12.855 13.4576 12.0408 13.5334ZM10.9491 13.6059C10.3172 13.6321 9.68443 13.6321 9.05247 13.6059C9.36664 14.0159 9.68414 14.3959 10.0008 14.7426C10.3175 14.3959 10.6341 14.0159 10.9491 13.6059ZM15.1491 7.02761C17.37 7.66428 18.82 8.72261 18.82 10.0001C18.82 11.2776 17.37 12.3359 15.1491 12.9726C15.7075 15.2143 15.5166 16.9993 14.4108 17.6376C13.3041 18.2768 11.6625 17.5501 10.0008 15.9459C8.33914 17.5501 6.69747 18.2768 5.59081 17.6376C4.48497 16.9993 4.29331 15.2143 4.85247 12.9726C2.63164 12.3359 1.18164 11.2776 1.18164 10.0001C1.18164 8.72261 2.63164 7.66428 4.85247 7.02761C4.29414 4.78594 4.48497 3.00094 5.59081 2.36261C6.69747 1.72344 8.33914 2.45011 10.0008 4.05428C11.6625 2.45011 13.3041 1.72344 14.4108 2.36261C15.5166 3.00094 15.7083 4.78594 15.1491 7.02761ZM14.3383 6.82094C14.8133 4.93761 14.7133 3.49928 13.9941 3.08428C13.275 2.66844 11.9783 3.30178 10.5858 4.65428C11.0783 5.19011 11.5683 5.79928 12.0408 6.46678C12.8558 6.54178 13.6275 6.66178 14.3383 6.82094ZM5.66331 13.1793C5.18831 15.0626 5.28831 16.5009 6.00747 16.9159C6.72664 17.3318 8.02331 16.6984 9.41581 15.3459C8.89275 14.7733 8.40676 14.1679 7.96081 13.5334C7.18822 13.4644 6.42083 13.3461 5.66331 13.1793ZM9.05247 6.39428C9.68443 6.36811 10.3172 6.36811 10.9491 6.39428C10.6496 6.00216 10.3332 5.62319 10.0008 5.25844C9.68414 5.60511 9.36747 5.98428 9.05247 6.39428ZM7.96081 6.46678C8.4073 5.83223 8.89384 5.22683 9.41747 4.65428C8.02331 3.30178 6.72581 2.66844 6.00831 3.08428C5.28831 3.49928 5.18914 4.93844 5.66331 6.82094C6.37414 6.66261 7.14664 6.54261 7.96081 6.46678ZM11.5791 12.7334C12.1723 11.8629 12.6996 10.9493 13.1566 10.0001C12.6996 9.05097 12.1723 8.13731 11.5791 7.26678C10.5284 7.18811 9.47323 7.18811 8.42247 7.26678C7.82927 8.13731 7.30197 9.05097 6.84497 10.0001C7.30197 10.9493 7.82927 11.8629 8.42247 12.7334C9.47323 12.8121 10.5284 12.8121 11.5791 12.7334ZM12.6491 12.6243C13.1616 12.5576 13.6491 12.4718 14.1075 12.3709C13.9576 11.9007 13.7874 11.4373 13.5975 10.9818C13.3041 11.5418 12.9878 12.0895 12.6491 12.6234V12.6243ZM7.35247 7.37511C6.83997 7.44178 6.35247 7.52761 5.89414 7.62844C6.03581 8.07511 6.20581 8.54011 6.40414 9.01761C6.69748 8.45755 7.01386 7.90902 7.35247 7.37511ZM5.89414 12.3701C6.35247 12.4709 6.83997 12.5559 7.35247 12.6234C7.01386 12.0895 6.69748 11.5418 6.40414 10.9818C6.20581 11.4584 6.03581 11.9234 5.89414 12.3701ZM5.07914 12.1659C5.29664 11.4709 5.57914 10.7426 5.92081 9.99928C5.57914 9.25594 5.29664 8.52761 5.07914 7.83261C3.21081 8.36344 2.01497 9.16928 2.01497 9.99928C2.01497 10.8293 3.21081 11.6351 5.07914 12.1659ZM14.1075 7.62844C13.6491 7.52761 13.1616 7.44261 12.6491 7.37511C12.9878 7.90902 13.3041 8.45671 13.5975 9.01678C13.7958 8.54011 13.9658 8.07511 14.1075 7.62844ZM14.9225 7.83261C14.705 8.52761 14.4225 9.25594 14.0808 9.99928C14.4225 10.7426 14.705 11.4709 14.9225 12.1659C16.7908 11.6351 17.9866 10.8293 17.9866 9.99928C17.9866 9.16928 16.7908 8.36344 14.9225 7.83261ZM10.0008 11.5668C9.79507 11.5668 9.59135 11.5263 9.40127 11.4475C9.21119 11.3688 9.03849 11.2534 8.89301 11.1079C8.74753 10.9624 8.63213 10.7897 8.5534 10.5996C8.47466 10.4096 8.43414 10.2058 8.43414 10.0001C8.43414 9.79437 8.47466 9.59065 8.5534 9.40057C8.63213 9.21049 8.74753 9.03779 8.89301 8.89231C9.03849 8.74683 9.21119 8.63143 9.40127 8.5527C9.59135 8.47397 9.79507 8.43344 10.0008 8.43344C10.4163 8.43344 10.8148 8.5985 11.1086 8.89231C11.4024 9.18612 11.5675 9.5846 11.5675 10.0001C11.5675 10.4156 11.4024 10.8141 11.1086 11.1079C10.8148 11.4017 10.4163 11.5668 10.0008 11.5668Z" fill="black"/>
</g>
<defs>
<clipPath id="clip0_86_118">
<rect width="20" height="20" fill="white"/>
</clipPath>
</defs>
</svg>
