<svg width="20" height="15" viewBox="0 0 20 15" fill="none" xmlns="http://www.w3.org/2000/svg">
<path fill-rule="evenodd" clip-rule="evenodd" d="M10 0C7.333 0 5.667 1.66625 5 5C6 3.33375 7.167 2.70875 8.5 3.125C9.261 3.36268 9.805 4.05307 10.406 4.8164C11.387 6.06011 12.522 7.5 15 7.5C17.667 7.5 19.333 5.83375 20 2.5C19 4.16625 17.834 4.79125 16.5 4.375C15.739 4.13732 15.195 3.44693 14.593 2.6836C13.613 1.43863 12.479 0 10 0ZM5 7.5C2.333 7.5 0.667 9.16625 0 12.5C1 10.8325 2.167 10.2088 3.5 10.625C4.261 10.8627 4.805 11.5531 5.407 12.3164C6.387 13.5601 7.522 15 10.001 15C12.668 15 14.334 13.3338 15.001 10C14.001 11.6662 12.834 12.2912 11.501 11.875C10.74 11.6373 10.196 10.9469 9.595 10.1836C8.613 8.93989 7.478 7.5 5 7.5Z" fill="black"/>
</svg>
