<svg width="20" height="20" viewBox="0 0 20 20" fill="none" xmlns="http://www.w3.org/2000/svg">
<path d="M9.1171 9.97173L15.058 5.38633L15.0194 0.79885C15.0194 0.79885 14.7657 -0.202352 13.9193 0.318765L6.01367 7.59185L9.1171 9.97173Z" fill="black"/>
<path d="M0.190284 6.97428C0.190284 6.97428 -0.296843 6.61936 0.287709 6.14543L1.64963 4.91446C1.64963 4.91446 2.03934 4.50002 2.45137 4.86111L15.0192 14.4792V19.0912C15.0192 19.0912 15.0132 19.8154 14.0937 19.7354L0.190284 6.97428Z" fill="black"/>
<path d="M3.43031 9.94727L0.190911 12.9241C0.190911 12.9241 -0.141959 13.1744 0.190911 13.6217L1.69492 15.0044C1.69492 15.0044 2.05214 15.3922 2.57987 14.9511L6.01411 12.3189L3.43031 9.94727Z" fill="black"/>
<path d="M14.0925 19.7417C14.4375 20.0986 14.8556 19.9817 14.8556 19.9817L19.4856 17.6757C20.0783 17.2673 19.9951 16.7606 19.9951 16.7606V2.99003C19.9951 2.38479 19.3821 2.17553 19.3821 2.17553L15.3691 0.220314C14.4923 -0.327473 13.918 0.31879 13.918 0.31879C13.918 0.31879 14.6567 -0.218737 15.0181 0.798875V19.0072C15.0181 19.1323 14.9916 19.2554 14.9389 19.3662C14.8333 19.5816 14.604 19.7827 14.0539 19.6986L14.0925 19.7417Z" fill="black"/>
</svg>
